<?xml version="1.0" standalone="no"?>
<!DOCTYPE svg PUBLIC "-//W3C//DTD SVG 20010904//EN"
 "http://www.w3.org/TR/2001/REC-SVG-20010904/DTD/svg10.dtd">
<svg version="1.0" xmlns="http://www.w3.org/2000/svg"
 width="654.000000pt" height="654.000000pt" viewBox="0 0 654.000000 654.000000"
 preserveAspectRatio="xMidYMid meet">
<metadata>
Created by potrace 1.14, written by Peter Selinger 2001-2017
</metadata>
<g transform="translate(0.000000,654.000000) scale(0.100000,-0.100000)"
fill="#000000" stroke="none">
<path d="M5278 6535 c-2 -3 -22 -7 -44 -11 -80 -13 -198 -78 -269 -149 -60
-60 -148 -195 -127 -195 4 0 2 -4 -4 -8 -30 -19 -51 -237 -31 -320 21 -84 42
-132 94 -215 24 -37 43 -72 43 -77 0 -6 4 -10 8 -10 11 0 105 -189 152 -305
14 -36 38 -100 39 -107 2 -9 5 -21 20 -73 7 -22 13 -47 15 -55 1 -8 5 -24 9
-35 3 -11 8 -37 12 -59 3 -21 7 -41 9 -45 25 -41 26 -589 1 -631 -2 -3 -6 -26
-10 -50 -3 -25 -11 -63 -17 -85 -5 -22 -11 -47 -13 -56 -4 -20 -62 -194 -78
-234 -33 -82 -140 -280 -192 -355 -81 -118 -142 -189 -259 -303 -126 -122
-113 -112 -221 -189 -163 -116 -384 -228 -537 -273 -32 -9 -58 -20 -58 -24 0
-4 26 -33 59 -64 101 -98 300 -334 324 -385 6 -12 13 -22 16 -22 4 0 15 -15
26 -32 10 -18 23 -37 27 -43 23 -27 127 -212 175 -311 l54 -112 56 29 c31 16
60 29 63 29 16 0 245 129 350 198 223 145 421 312 613 521 61 66 204 247 245
309 20 31 39 59 43 62 10 10 99 161 99 170 0 4 4 10 8 12 19 7 212 421 226
483 1 6 16 55 33 110 17 55 35 114 39 130 10 40 11 44 14 50 1 3 3 8 4 13 6
27 19 89 21 102 2 8 8 38 14 67 6 29 13 74 16 100 3 26 8 57 10 68 27 131 27
590 0 785 -3 19 -8 55 -11 80 -10 74 -11 82 -28 164 -9 44 -19 82 -21 86 -2 4
-7 22 -10 41 -10 60 -102 321 -146 414 -24 50 -43 92 -43 95 -3 14 -101 186
-110 192 -6 4 -8 8 -4 8 7 0 -73 125 -126 196 -17 23 -38 52 -46 64 -8 12 -28
38 -45 58 -105 127 -147 156 -272 186 -54 12 -206 20 -215 11z"/>
<path d="M3145 5270 c-22 -5 -67 -18 -100 -29 -33 -12 -65 -23 -71 -24 -18 -4
-126 -72 -154 -97 -14 -12 -32 -27 -40 -34 -38 -28 -115 -132 -154 -208 -98
-188 -106 -427 -23 -618 63 -143 196 -289 322 -353 78 -39 119 -57 144 -62 12
-2 30 -6 39 -9 81 -24 240 -25 337 -2 46 12 72 20 83 29 6 5 12 6 12 1 0 -4 5
-3 12 4 7 7 20 12 30 12 10 0 18 5 18 10 0 6 6 10 13 10 43 0 218 155 273 242
30 46 64 106 63 110 0 2 5 17 11 33 64 167 62 389 -5 540 -8 17 -18 41 -24 55
-55 129 -230 289 -381 349 -112 44 -294 62 -405 41z"/>
<path d="M1717 2874 c-1 -1 -36 -4 -77 -7 -118 -9 -232 -24 -280 -37 -19 -5
-47 -11 -62 -14 -217 -38 -553 -184 -802 -349 -146 -96 -225 -178 -276 -282
-80 -165 -80 -324 -2 -496 12 -25 28 -52 37 -59 8 -7 15 -16 15 -21 0 -42 194
-185 276 -204 10 -2 39 -10 64 -16 88 -23 227 -11 316 26 21 9 40 16 42 15 8
-2 70 37 133 85 41 31 99 68 130 84 30 15 62 32 70 37 18 11 184 71 219 79 12
2 78 15 115 22 52 10 306 9 370 -1 109 -17 227 -53 330 -102 71 -33 159 -85
163 -96 2 -4 10 -8 18 -8 8 0 14 -4 14 -8 0 -4 12 -15 28 -24 70 -43 214 -200
286 -311 51 -79 121 -231 141 -310 3 -9 8 -27 11 -40 32 -123 47 -347 30 -452
-6 -36 -12 -75 -22 -128 -7 -42 -66 -209 -82 -234 l-14 -23 595 0 595 0 8 33
c4 17 8 37 9 42 1 11 15 99 21 130 25 133 24 525 -1 668 -3 15 -7 39 -10 54
-3 16 -8 46 -11 68 -4 22 -10 48 -15 58 -6 9 -8 17 -5 17 3 0 0 15 -5 33 -6
17 -12 43 -15 57 -2 14 -7 32 -11 40 -3 8 -7 17 -8 20 -3 12 -27 86 -32 100
-4 8 -7 17 -8 20 -28 112 -198 427 -319 590 -97 132 -287 330 -397 415 -28 22
-57 45 -63 52 -31 28 -230 156 -316 201 -77 41 -226 104 -275 116 -5 2 -17 6
-25 9 -72 28 -241 86 -265 91 -192 41 -332 57 -528 60 -60 0 -109 0 -110 0z"/>
</g>
</svg>
